<svg xmlns="http://www.w3.org/2000/svg" width="64" height="64" viewBox="0 0 64 64">
  <g id="challenge" transform="translate(-113 -372)">
    <g id="Path_275" data-name="Path 275" transform="translate(113 372)" fill="#fff">
      <path d="M 62.5 62.5 L 50.66666030883789 62.5 L 1.5 62.5 L 1.5 1.5 L 62.5 1.5 L 62.5 62.5 Z" stroke="none"/>
      <path d="M 3 3 L 3 61 L 50.66665649414062 61 L 61 61 L 61 3 L 3 3 M 0 0 L 64 0 L 64 64 L 50.66665649414062 64 L 0 64 L 0 0 Z" stroke="none" fill="#0bbee3"/>
    </g>
    <path id="Icon_metro-chart-bars2" data-name="Icon metro-chart-bars2" d="M14.8,17.554H5.97A1.476,1.476,0,0,0,4.5,19.025V45.507A1.476,1.476,0,0,0,5.97,46.978H14.8a1.476,1.476,0,0,0,1.471-1.471V19.025A1.476,1.476,0,0,0,14.8,17.554Zm0,26.482H5.97V32.266H14.8ZM29.51,11.669H20.682a1.476,1.476,0,0,0-1.471,1.471V45.507a1.476,1.476,0,0,0,1.471,1.471H29.51a1.476,1.476,0,0,0,1.471-1.471V13.14a1.476,1.476,0,0,0-1.471-1.471Zm0,32.367H20.682V29.324H29.51ZM44.222,5.784H35.395a1.476,1.476,0,0,0-1.471,1.471V45.507a1.476,1.476,0,0,0,1.471,1.471h8.827a1.476,1.476,0,0,0,1.471-1.471V7.255a1.476,1.476,0,0,0-1.471-1.471Zm0,38.252H35.395V26.381h8.827Z" transform="translate(119.501 377.72)" fill="#0c12f5"/>
  </g>
</svg>
