<svg xmlns="http://www.w3.org/2000/svg" width="19.444" height="17.949" viewBox="0 0 19.444 17.949">
  <g id="gas-fix-icon" transform="translate(0 0)">
    <path id="Icon_ionic-md-home" data-name="Icon ionic-md-home" d="M10.854,22.449H19.9V13.474h2.917L13.1,4.5,3.375,13.474H6.292v8.974Z" transform="translate(-3.375 -4.5)" fill="#111"/>
    <g id="Group_1047" data-name="Group 1047" transform="translate(5.484 5.612)">
      <g id="Group_33" data-name="Group 33" transform="translate(0 0)">
        <path id="Path_16" data-name="Path 16" d="M216.4,277.613c-2.039-2.326-2.919-3.024-3.176-4.086a.588.588,0,0,1-.12.012.56.56,0,0,1-.111-.011,7.619,7.619,0,0,0-.119,3.177.5.5,0,0,1-.028.228,5.176,5.176,0,0,0,1,1.33c2.205,2.174.848,5.251.848,5.251S219.259,280.873,216.4,277.613Z" transform="translate(-208.741 -271.179)" fill="#fff"/>
        <path id="Path_17" data-name="Path 17" d="M149.689,241.817c2.637-3.341,3.423-3.838,3.5-5.681a5.3,5.3,0,0,1-.935,6.32c-2.319,2.565-1.069,6.017-1.069,6.017S146.666,245.647,149.689,241.817Z" transform="translate(-148.647 -236.136)" fill="#fff"/>
        <path id="Path_18" data-name="Path 18" d="M199.205,382.23c-.381-.8-.944-1.377-.949-1.725,0,.348-.567.925-.949,1.725a1.361,1.361,0,0,0,.121,1.544h1.655A1.361,1.361,0,0,0,199.205,382.23Z" transform="translate(-194.088 -371.437)" fill="#fff"/>
      </g>
    </g>
  </g>
</svg>
