<svg xmlns="http://www.w3.org/2000/svg" width="42.769" height="39.479" viewBox="0 0 42.769 39.479">
  <g id="gas-fix-icon" transform="translate(-444.208 -66.876)">
    <path id="Icon_ionic-md-home" data-name="Icon ionic-md-home" d="M19.825,43.979h19.9V24.24h6.415L24.76,4.5,3.375,24.24H9.79v19.74Z" transform="translate(440.833 62.376)" fill="#060a75"/>
    <g id="Group_1047" data-name="Group 1047" transform="translate(456.271 79.22)">
      <g id="Group_33" data-name="Group 33" transform="translate(0 0)">
        <path id="Path_16" data-name="Path 16" d="M220.761,282.514c-4.484-5.117-6.42-6.652-6.986-8.987a1.29,1.29,0,0,1-.263.026,1.242,1.242,0,0,1-.244-.025c-.756,2.3-.487,4.612-.262,6.989a1.1,1.1,0,0,1-.061.5,11.385,11.385,0,0,0,2.191,2.926C219.985,288.726,217,295.5,217,295.5S227.046,289.685,220.761,282.514Z" transform="translate(-203.91 -268.361)" fill="#fff"/>
        <path id="Path_17" data-name="Path 17" d="M150.939,248.633c5.8-7.349,7.529-8.442,7.691-12.5,0,0,4.3,6.861-2.058,13.9-5.1,5.642-2.352,13.235-2.352,13.235S144.291,257.056,150.939,248.633Z" transform="translate(-148.647 -236.136)" fill="#fff"/>
        <path id="Path_18" data-name="Path 18" d="M201.691,384.3c-.839-1.761-2.076-3.029-2.087-3.795-.011.766-1.248,2.034-2.087,3.795a2.994,2.994,0,0,0,.266,3.4h3.641A2.994,2.994,0,0,0,201.691,384.3Z" transform="translate(-190.435 -360.56)" fill="#fff"/>
      </g>
    </g>
  </g>
</svg>
