<svg xmlns="http://www.w3.org/2000/svg" width="64" height="64" viewBox="0 0 64 64">
  <g id="what-they-say" transform="translate(-295 -227)">
    <g id="Path_271" data-name="Path 271" transform="translate(295 227)" fill="#fff">
      <path d="M 62.5 62.5 L 50.66666030883789 62.5 L 1.5 62.5 L 1.5 1.5 L 62.5 1.5 L 62.5 62.5 Z" stroke="none"/>
      <path d="M 3 3 L 3 61 L 50.66665649414062 61 L 61 61 L 61 3 L 3 3 M 0 0 L 64 0 L 64 64 L 50.66665649414062 64 L 0 64 L 0 0 Z" stroke="none" fill="#0bbee3"/>
    </g>
    <path id="Icon_material-chat" data-name="Icon material-chat" d="M37.891,3H6.877A3.9,3.9,0,0,0,3.019,6.937L3,42.369,10.754,34.5H37.891a3.919,3.919,0,0,0,3.877-3.937V6.937A3.919,3.919,0,0,0,37.891,3ZM10.754,16.779H34.014v3.937H10.754Zm15.507,9.842H10.754V22.685H26.261Zm7.754-11.811H10.754V10.874H34.014Z" transform="translate(304.592 236)" fill="#0c12f5"/>
    <path id="Icon_ionic-ios-person" data-name="Icon ionic-ios-person" d="M37.041,36.236c-.61-2.7-4.1-4.01-5.3-4.434a39.51,39.51,0,0,0-4.417-.848,4.488,4.488,0,0,1-2.043-.941c-.339-.407-.136-4.18-.136-4.18a12.576,12.576,0,0,0,.967-1.84,23.732,23.732,0,0,0,.712-3.213s.7,0,.941-1.221c.263-1.331.678-1.848.627-2.84-.051-.975-.585-.95-.585-.95a14.866,14.866,0,0,0,.577-4.35c.076-3.485-2.654-6.919-7.6-6.919-5.011,0-7.682,3.434-7.605,6.919a15.506,15.506,0,0,0,.568,4.35s-.534-.025-.585.95c-.051.992.365,1.509.627,2.84.237,1.221.941,1.221.941,1.221a23.732,23.732,0,0,0,.712,3.213,12.576,12.576,0,0,0,.967,1.84s.2,3.773-.136,4.18a4.488,4.488,0,0,1-2.043.941,39.51,39.51,0,0,0-4.417.848c-1.2.424-4.689,1.738-5.3,4.434a.678.678,0,0,0,.67.822H36.38A.676.676,0,0,0,37.041,36.236Z" transform="translate(319.041 250.442)" fill="#fff" stroke="#0c12f5" stroke-width="3"/>
  </g>
</svg>
