<svg xmlns="http://www.w3.org/2000/svg" width="64" height="64" viewBox="0 0 64 64">
  <g id="bulb" transform="translate(-120 -272)">
    <g id="Path_272" data-name="Path 272" transform="translate(120 272)" fill="#fff">
      <path d="M 32 62.5 C 27.88187026977539 62.5 23.88771057128906 61.69379043579102 20.12848091125488 60.1037712097168 C 16.49674987792969 58.56768035888672 13.23480033874512 56.36830902099609 10.43323993682861 53.5667610168457 C 7.63169002532959 50.76520156860352 5.432320117950439 47.50325012207031 3.896229982376099 43.87152099609375 C 2.306210041046143 40.11228942871094 1.5 36.11812973022461 1.5 32 C 1.5 27.88187026977539 2.306210041046143 23.88771057128906 3.896229982376099 20.12848091125488 C 5.432320117950439 16.49674987792969 7.63169002532959 13.23480033874512 10.43323993682861 10.43323993682861 C 13.23480033874512 7.63169002532959 16.49674987792969 5.432320117950439 20.12848091125488 3.896229982376099 C 23.88771057128906 2.306210041046143 27.88187026977539 1.5 32 1.5 C 36.11812973022461 1.5 40.11228942871094 2.306210041046143 43.87152099609375 3.896229982376099 C 47.50325012207031 5.432320117950439 50.76520156860352 7.63169002532959 53.5667610168457 10.43323993682861 C 56.36830902099609 13.23480033874512 58.56768035888672 16.49674987792969 60.1037712097168 20.12848091125488 C 61.69379043579102 23.88771057128906 62.5 27.88187026977539 62.5 32 C 62.5 36.11812973022461 61.69379043579102 40.11228942871094 60.1037712097168 43.87152099609375 C 58.56768035888672 47.50325012207031 56.36830902099609 50.76520156860352 53.5667610168457 53.5667610168457 C 50.76520156860352 56.36830902099609 47.50325012207031 58.56768035888672 43.87152099609375 60.1037712097168 C 40.11228942871094 61.69379043579102 36.11812973022461 62.5 32 62.5 Z" stroke="none"/>
      <path d="M 32 3 C 28.08369827270508 3 24.2861442565918 3.766345977783203 20.71281051635742 5.277732849121094 C 17.25986480712891 6.738201141357422 14.15817642211914 8.829620361328125 11.49390029907227 11.49390029907227 C 8.829620361328125 14.15817642211914 6.738201141357422 17.25986480712891 5.277732849121094 20.71281051635742 C 3.766345977783203 24.2861442565918 3 28.08369827270508 3 32 C 3 35.91629791259766 3.766345977783203 39.7138557434082 5.277732849121094 43.28718948364258 C 6.738201141357422 46.74013519287109 8.829620361328125 49.84182357788086 11.49390029907227 52.50609970092773 C 14.15817642211914 55.17037963867188 17.25986480712891 57.26179885864258 20.71281051635742 58.72226715087891 C 24.2861442565918 60.2336540222168 28.08369827270508 61 32 61 C 35.91629791259766 61 39.7138557434082 60.2336540222168 43.28718948364258 58.72226715087891 C 46.74013519287109 57.26179885864258 49.84182357788086 55.17037963867188 52.50609970092773 52.50609970092773 C 55.17037963867188 49.84182357788086 57.26179885864258 46.74013519287109 58.72226715087891 43.28718948364258 C 60.2336540222168 39.7138557434082 61 35.91629791259766 61 32 C 61 28.08369827270508 60.2336540222168 24.2861442565918 58.72226715087891 20.71281051635742 C 57.26179885864258 17.25986480712891 55.17037963867188 14.15817642211914 52.50609970092773 11.49390029907227 C 49.84182357788086 8.829620361328125 46.74013519287109 6.738201141357422 43.28718948364258 5.277732849121094 C 39.7138557434082 3.766345977783203 35.91629791259766 3 32 3 M 32 0 C 49.67311096191406 0 64 14.32688903808594 64 32 C 64 49.67311096191406 49.67311096191406 64 32 64 C 14.32688903808594 64 0 49.67311096191406 0 32 C 0 14.32688903808594 14.32688903808594 0 32 0 Z" stroke="none" fill="#0bbee3"/>
    </g>
    <path id="Icon_awesome-lightbulb" data-name="Icon awesome-lightbulb" d="M9.058,42.842a3.019,3.019,0,0,0,.505,1.668l1.611,2.422a3.016,3.016,0,0,0,2.512,1.347h5.819a3.016,3.016,0,0,0,2.512-1.346l1.612-2.422a3.016,3.016,0,0,0,.505-1.668l0-3.616H9.053ZM0,16.6A16.5,16.5,0,0,0,4.107,27.513a27.1,27.1,0,0,1,4.923,8.623c0,.025.007.049.01.074H24.15c0-.025.007-.048.01-.074a27.1,27.1,0,0,1,4.923-8.623A16.592,16.592,0,1,0,0,16.6ZM16.6,9.052A7.552,7.552,0,0,0,9.052,16.6a1.509,1.509,0,1,1-3.017,0A10.572,10.572,0,0,1,16.6,6.035a1.509,1.509,0,1,1,0,3.017Z" transform="translate(135.167 279.999)" fill="#0c12f5"/>
  </g>
</svg>
