<svg xmlns="http://www.w3.org/2000/svg" width="498.648" height="114.354" viewBox="0 0 498.648 114.354">
  <g id="gas-fix" transform="translate(-112 -88.11)">
    <g id="Group_1051" data-name="Group 1051" transform="translate(112 88.11)">
      <g id="gas-fix-text" transform="translate(108.856)">
        <g id="Group_32" data-name="Group 32" transform="translate(0 0)">
          <path id="Path_10" data-name="Path 10" d="M440.441,335.474V382.68a49.461,49.461,0,0,1-1.726,13.929,22.309,22.309,0,0,1-5.536,9.643,23.221,23.221,0,0,1-9.971,5.656,54.256,54.256,0,0,1-15.328,1.845,44.585,44.585,0,0,1-15-2.351,25.919,25.919,0,0,1-10.18-6.072q-3.571-3.721-3.571-7.649a6.31,6.31,0,0,1,2.024-4.852,6.926,6.926,0,0,1,4.881-1.875,8,8,0,0,1,6.251,3.155q1.308,1.606,2.708,3.244a15.823,15.823,0,0,0,3.1,2.8,12.133,12.133,0,0,0,4.078,1.726,23.838,23.838,0,0,0,5.476.565q6.309,0,9.793-1.756a10.034,10.034,0,0,0,4.881-4.911,19.788,19.788,0,0,0,1.637-6.756q.237-3.6.357-11.578a26.7,26.7,0,0,1-8.661,7.977,23.656,23.656,0,0,1-11.7,2.738,24.659,24.659,0,0,1-14.257-4.167,26.6,26.6,0,0,1-9.376-11.668A42.953,42.953,0,0,1,377.043,355a41.057,41.057,0,0,1,1.994-13.215,27.706,27.706,0,0,1,5.685-9.941,24.337,24.337,0,0,1,8.512-6.1,26.766,26.766,0,0,1,10.6-2.054,25.474,25.474,0,0,1,11.965,2.649,29.124,29.124,0,0,1,9.406,8.3v-2.2a9.467,9.467,0,0,1,2.083-6.549,6.87,6.87,0,0,1,5.357-2.321q4.7,0,6.251,3.065T440.441,335.474Zm-47.087,20.6q0,9.882,4.316,14.942a13.988,13.988,0,0,0,11.161,5.06,14.562,14.562,0,0,0,7.649-2.173,15.943,15.943,0,0,0,5.863-6.548,22.911,22.911,0,0,0,2.262-10.626q0-9.941-4.375-15.477a13.969,13.969,0,0,0-11.519-5.536,13.523,13.523,0,0,0-11.161,5.3Q393.354,346.309,393.354,356.07Z" transform="translate(-377.043 -299.399)" fill="#0c12f5"/>
          <path id="Path_11" data-name="Path 11" d="M541.845,380.4a50.3,50.3,0,0,1-11.4,6.876,31.881,31.881,0,0,1-12.352,2.291,23.416,23.416,0,0,1-10.983-2.47,18.063,18.063,0,0,1-7.292-6.7,17.371,17.371,0,0,1-2.56-9.167,16.41,16.41,0,0,1,4.226-11.37,21.137,21.137,0,0,1,11.608-6.31q1.548-.357,7.679-1.607t10.506-2.292q4.376-1.04,9.5-2.53-.3-6.429-2.59-9.435t-9.495-3.006q-6.191,0-9.316,1.726a15.132,15.132,0,0,0-5.358,5.179,54.886,54.886,0,0,1-3.155,4.554q-.924,1.1-3.958,1.1a6.923,6.923,0,0,1-4.733-1.756,5.718,5.718,0,0,1-1.994-4.494,13.748,13.748,0,0,1,3.036-8.334q3.036-4.048,9.465-6.667t16.013-2.619q10.715,0,16.847,2.53a15.666,15.666,0,0,1,8.661,8.007q2.53,5.477,2.53,14.525,0,5.715-.03,9.7t-.089,8.87a32.668,32.668,0,0,0,1.518,9.554,30.189,30.189,0,0,1,1.518,6.4,5.99,5.99,0,0,1-2.352,4.554,7.88,7.88,0,0,1-5.328,2.054,7.188,7.188,0,0,1-4.941-2.351A34.872,34.872,0,0,1,541.845,380.4Zm-1.071-23.514a81.785,81.785,0,0,1-10.388,2.768q-6.818,1.459-9.436,2.143a12.845,12.845,0,0,0-5,2.679,6.862,6.862,0,0,0-2.381,5.566,8.241,8.241,0,0,0,2.8,6.28,10.352,10.352,0,0,0,7.322,2.589,19.045,19.045,0,0,0,8.9-2.114,14.1,14.1,0,0,0,5.982-5.447q2.2-3.69,2.2-12.143Z" transform="translate(-423.979 -299.323)" fill="#0c12f5"/>
          <path id="Path_12" data-name="Path 12" d="M672.019,368.393a18.85,18.85,0,0,1-12.947,18.781,43.375,43.375,0,0,1-15.566,2.47,37.976,37.976,0,0,1-15-2.678q-6.25-2.679-9.226-6.7A13.488,13.488,0,0,1,616.3,372.2a6.249,6.249,0,0,1,1.9-4.584,6.535,6.535,0,0,1,4.822-1.9,5.629,5.629,0,0,1,3.929,1.25,13.7,13.7,0,0,1,2.619,3.512,17.807,17.807,0,0,0,5.983,6.489q3.482,2.142,9.495,2.143a13.718,13.718,0,0,0,8.007-2.172q3.125-2.173,3.125-4.971a6.766,6.766,0,0,0-3.244-6.251q-3.245-1.964-10.685-3.75a88.484,88.484,0,0,1-13.662-4.376,22.488,22.488,0,0,1-8.424-6.042,13.842,13.842,0,0,1-3.155-9.226,16.271,16.271,0,0,1,2.917-9.227,20.006,20.006,0,0,1,8.6-6.935,32.947,32.947,0,0,1,13.721-2.589,45.117,45.117,0,0,1,11.34,1.309,28.31,28.31,0,0,1,8.394,3.512,17.338,17.338,0,0,1,5.119,4.881,9.557,9.557,0,0,1,1.756,5.239,6.047,6.047,0,0,1-1.875,4.583,7.423,7.423,0,0,1-5.328,1.786,6.526,6.526,0,0,1-4.257-1.429,28.052,28.052,0,0,1-4.018-4.286,14.7,14.7,0,0,0-4.345-3.81,13.691,13.691,0,0,0-6.786-1.429,13.289,13.289,0,0,0-7.322,1.875,5.471,5.471,0,0,0-2.917,4.673,5.058,5.058,0,0,0,2.143,4.2,17.765,17.765,0,0,0,5.774,2.708q3.631,1.072,10,2.619a53.468,53.468,0,0,1,12.352,4.405,20.537,20.537,0,0,1,7.262,6.042A13.4,13.4,0,0,1,672.019,368.393Z" transform="translate(-470.456 -299.399)" fill="#0c12f5"/>
          <path id="Path_13" data-name="Path 13" d="M784.039,299.993H749.215v22.323h29.109q4.048,0,6.042,1.816a6.242,6.242,0,0,1,1.995,4.852,6.107,6.107,0,0,1-2.024,4.822q-2.024,1.786-6.012,1.786H749.215v28.752q0,5.477-2.471,8.125a8.947,8.947,0,0,1-12.739-.03q-2.471-2.679-2.471-8.1V297.195a14.709,14.709,0,0,1,1.131-6.221,7.023,7.023,0,0,1,3.542-3.512,14.9,14.9,0,0,1,6.162-1.1h41.67q4.226,0,6.281,1.875a6.337,6.337,0,0,1,2.054,4.911,6.408,6.408,0,0,1-2.054,4.971Q788.266,299.993,784.039,299.993Z" transform="translate(-515.447 -284.872)" fill="#060a75"/>
          <path id="Path_14" data-name="Path 14" d="M854.094,363.39V294.635q0-5.358,2.441-8.036a8.144,8.144,0,0,1,6.31-2.679,8.425,8.425,0,0,1,6.459,2.649q2.47,2.65,2.47,8.066V363.39q0,5.416-2.47,8.1a8.378,8.378,0,0,1-6.459,2.678,8.128,8.128,0,0,1-6.28-2.708Q854.093,368.747,854.094,363.39Z" transform="translate(-563.298 -283.919)" fill="#060a75"/>
          <path id="Path_15" data-name="Path 15" d="M907.463,355.711,926.988,327.2l-16.43-25.359a50.289,50.289,0,0,1-3.482-6.34,12.662,12.662,0,0,1-1.161-5.09,5.926,5.926,0,0,1,2.232-4.494,7.885,7.885,0,0,1,5.447-1.994,7.526,7.526,0,0,1,5.745,2.173,54.922,54.922,0,0,1,5.685,8.066l13.1,21.192,13.989-21.192q1.726-2.678,2.947-4.583a24.047,24.047,0,0,1,2.352-3.155,7.562,7.562,0,0,1,2.53-1.875,7.879,7.879,0,0,1,3.244-.625,7.617,7.617,0,0,1,5.447,1.994,6.3,6.3,0,0,1,2.113,4.733q0,3.989-4.584,10.834l-17.2,25.717,18.514,28.514a47.72,47.72,0,0,1,3.631,6.221,11.265,11.265,0,0,1,1.131,4.673,7.4,7.4,0,0,1-1.012,3.81,7.3,7.3,0,0,1-2.858,2.738,8.519,8.519,0,0,1-4.167,1.012,8.041,8.041,0,0,1-4.227-1.042,8.974,8.974,0,0,1-2.8-2.589q-1.072-1.547-3.989-6.012l-15.358-24.168-16.311,24.883q-1.905,2.977-2.708,4.167a15.74,15.74,0,0,1-1.935,2.321,8.347,8.347,0,0,1-2.679,1.786,9.274,9.274,0,0,1-3.632.655,7.52,7.52,0,0,1-5.327-1.964,7.42,7.42,0,0,1-2.114-5.715Q903.117,362.08,907.463,355.711Z" transform="translate(-582.438 -283.919)" fill="#060a75"/>
        </g>
      </g>
      <g id="Group_1049" data-name="Group 1049" transform="translate(0 0.933)">
        <g id="gas-fix-icon" transform="translate(0 0)">
          <path id="Icon_ionic-md-home" data-name="Icon ionic-md-home" d="M40.7,94.07H85.854V49.285h14.555L51.892,4.5,3.375,49.285H17.93V94.07Z" transform="translate(-3.375 -4.5)" fill="#060a75"/>
          <g id="Group_1047" data-name="Group 1047" transform="translate(27.367 28.006)">
            <g id="Group_33" data-name="Group 33" transform="translate(0 0)">
              <path id="Path_16" data-name="Path 16" d="M230.9,293.917c-10.174-11.609-14.565-15.091-15.851-20.39a2.927,2.927,0,0,1-.6.06,2.817,2.817,0,0,1-.553-.057c-1.716,5.218-1.105,10.464-.594,15.856a2.5,2.5,0,0,1-.137,1.14,25.828,25.828,0,0,0,4.97,6.639c11,10.847,4.229,26.207,4.229,26.207S245.161,310.187,230.9,293.917Z" transform="translate(-192.67 -261.807)" fill="#fff"/>
              <path id="Path_17" data-name="Path 17" d="M153.846,264.488c13.159-16.674,17.083-19.154,17.45-28.352,0,0,9.766,15.567-4.668,31.537-11.571,12.8-5.336,30.027-5.336,30.027S138.764,283.6,153.846,264.488Z" transform="translate(-148.647 -236.136)" fill="#fff"/>
              <path id="Path_18" data-name="Path 18" d="M207.473,389.115c-1.9-4-4.71-6.873-4.734-8.61-.024,1.737-2.832,4.614-4.734,8.61-2.266,4.758.6,7.7.6,7.7h8.26S209.739,393.873,207.473,389.115Z" transform="translate(-181.936 -335.254)" fill="#fff"/>
            </g>
          </g>
        </g>
      </g>
    </g>
  </g>
</svg>
