<svg xmlns="http://www.w3.org/2000/svg" width="219.786" height="50.403" viewBox="0 0 219.786 50.403">
  <g id="gas-fix" transform="translate(-112 -88.11)">
    <g id="Group_1051" data-name="Group 1051">
      <g id="gas-fix-text" transform="translate(1.549 -133.36)">
        <g id="Group_32" data-name="Group 32" transform="translate(158.431 221.47)">
          <path id="Path_10" data-name="Path 10" d="M404.986,328.816v20.807a21.8,21.8,0,0,1-.761,6.14,9.833,9.833,0,0,1-2.44,4.25,10.235,10.235,0,0,1-4.4,2.493,23.914,23.914,0,0,1-6.756.813,19.651,19.651,0,0,1-6.612-1.036,11.424,11.424,0,0,1-4.487-2.676,4.881,4.881,0,0,1-1.574-3.372,2.781,2.781,0,0,1,.892-2.138,3.053,3.053,0,0,1,2.152-.826,3.527,3.527,0,0,1,2.755,1.391q.577.708,1.194,1.43a6.974,6.974,0,0,0,1.364,1.233,5.348,5.348,0,0,0,1.8.761,10.506,10.506,0,0,0,2.414.249,9.776,9.776,0,0,0,4.316-.774A4.423,4.423,0,0,0,397,355.395a8.722,8.722,0,0,0,.721-2.978q.1-1.587.157-5.1a11.769,11.769,0,0,1-3.818,3.516,10.427,10.427,0,0,1-5.156,1.207,10.869,10.869,0,0,1-6.284-1.837,11.726,11.726,0,0,1-4.132-5.143,18.932,18.932,0,0,1-1.443-7.635,18.1,18.1,0,0,1,.879-5.825,12.212,12.212,0,0,1,2.506-4.382,10.727,10.727,0,0,1,3.752-2.689,11.8,11.8,0,0,1,4.67-.905,11.228,11.228,0,0,1,5.274,1.168,12.837,12.837,0,0,1,4.146,3.66v-.971a4.173,4.173,0,0,1,.918-2.886,3.028,3.028,0,0,1,2.361-1.023,2.784,2.784,0,0,1,2.755,1.351A8.871,8.871,0,0,1,404.986,328.816Zm-20.754,9.078q0,4.356,1.9,6.586a6.165,6.165,0,0,0,4.919,2.23,6.418,6.418,0,0,0,3.372-.958,7.027,7.027,0,0,0,2.584-2.886,10.1,10.1,0,0,0,1-4.684,10.749,10.749,0,0,0-1.928-6.822,6.157,6.157,0,0,0-5.077-2.44,5.96,5.96,0,0,0-4.919,2.335A10.467,10.467,0,0,0,384.232,337.894Z" transform="translate(-377.043 -312.915)" fill="#0c12f5"/>
          <path id="Path_11" data-name="Path 11" d="M516.91,348.509a22.17,22.17,0,0,1-5.025,3.031,14.052,14.052,0,0,1-5.444,1.01,10.32,10.32,0,0,1-4.841-1.089,7.962,7.962,0,0,1-3.214-2.952,7.656,7.656,0,0,1-1.128-4.041,7.233,7.233,0,0,1,1.863-5.011,9.317,9.317,0,0,1,5.116-2.781q.682-.157,3.385-.708t4.631-1.01q1.929-.459,4.185-1.115a7.474,7.474,0,0,0-1.142-4.159q-1.01-1.325-4.185-1.325a8.724,8.724,0,0,0-4.106.761,6.67,6.67,0,0,0-2.361,2.283,24.192,24.192,0,0,1-1.391,2.007,2.28,2.28,0,0,1-1.745.485,3.052,3.052,0,0,1-2.086-.774,2.52,2.52,0,0,1-.879-1.981,6.06,6.06,0,0,1,1.338-3.673,9.574,9.574,0,0,1,4.172-2.939,18.8,18.8,0,0,1,7.058-1.154,19.977,19.977,0,0,1,7.425,1.115,6.9,6.9,0,0,1,3.818,3.529,15.431,15.431,0,0,1,1.115,6.4q0,2.519-.013,4.277t-.039,3.91a14.4,14.4,0,0,0,.669,4.211,13.307,13.307,0,0,1,.669,2.821,2.64,2.64,0,0,1-1.037,2.007,3.473,3.473,0,0,1-2.348.905,3.168,3.168,0,0,1-2.178-1.036A15.369,15.369,0,0,1,516.91,348.509Zm-.472-10.364a36.047,36.047,0,0,1-4.579,1.22q-3,.643-4.159.945a5.662,5.662,0,0,0-2.2,1.181,3.024,3.024,0,0,0-1.049,2.453,3.633,3.633,0,0,0,1.233,2.768,4.563,4.563,0,0,0,3.227,1.141,8.394,8.394,0,0,0,3.923-.932,6.214,6.214,0,0,0,2.637-2.4,10.968,10.968,0,0,0,.971-5.352Z" transform="translate(-464.959 -312.773)" fill="#0c12f5"/>
          <path id="Path_12" data-name="Path 12" d="M640.86,343.325a8.308,8.308,0,0,1-5.707,8.278,19.118,19.118,0,0,1-6.861,1.089,16.738,16.738,0,0,1-6.612-1.181,9.627,9.627,0,0,1-4.067-2.952A5.945,5.945,0,0,1,616.3,345a2.754,2.754,0,0,1,.84-2.02,2.88,2.88,0,0,1,2.125-.84A2.481,2.481,0,0,1,621,342.7a6.04,6.04,0,0,1,1.154,1.548,7.848,7.848,0,0,0,2.637,2.86,7.954,7.954,0,0,0,4.185.944,6.046,6.046,0,0,0,3.529-.958,2.694,2.694,0,0,0,1.377-2.191,2.982,2.982,0,0,0-1.43-2.755,17.7,17.7,0,0,0-4.71-1.653,39,39,0,0,1-6.022-1.929,9.911,9.911,0,0,1-3.713-2.663,6.1,6.1,0,0,1-1.39-4.067,7.172,7.172,0,0,1,1.286-4.067,8.817,8.817,0,0,1,3.791-3.057,14.521,14.521,0,0,1,6.048-1.141,19.885,19.885,0,0,1,5,.577,12.478,12.478,0,0,1,3.7,1.548,7.641,7.641,0,0,1,2.256,2.152,4.212,4.212,0,0,1,.774,2.309,2.666,2.666,0,0,1-.826,2.02,3.272,3.272,0,0,1-2.348.787,2.876,2.876,0,0,1-1.876-.63,12.365,12.365,0,0,1-1.771-1.889,6.48,6.48,0,0,0-1.915-1.679,6.035,6.035,0,0,0-2.991-.63,5.857,5.857,0,0,0-3.227.826,2.411,2.411,0,0,0-1.286,2.06,2.23,2.23,0,0,0,.945,1.85,7.83,7.83,0,0,0,2.545,1.194q1.6.472,4.408,1.155a23.566,23.566,0,0,1,5.444,1.942,9.052,9.052,0,0,1,3.2,2.663A5.9,5.9,0,0,1,640.86,343.325Z" transform="translate(-552.018 -312.915)" fill="#0c12f5"/>
          <path id="Path_13" data-name="Path 13" d="M754.677,292.369H739.328v9.839h12.83a3.847,3.847,0,0,1,2.663.8,2.751,2.751,0,0,1,.879,2.138,2.692,2.692,0,0,1-.892,2.125,3.9,3.9,0,0,1-2.65.787h-12.83v12.673a5.1,5.1,0,0,1-1.089,3.581,3.944,3.944,0,0,1-5.615-.013,5.109,5.109,0,0,1-1.089-3.568v-29.6a6.483,6.483,0,0,1,.5-2.742,3.1,3.1,0,0,1,1.561-1.548,6.566,6.566,0,0,1,2.716-.485h18.366a4,4,0,0,1,2.768.826,2.793,2.793,0,0,1,.905,2.165,2.824,2.824,0,0,1-.905,2.191A4,4,0,0,1,754.677,292.369Z" transform="translate(-636.291 -285.705)" fill="#060a75"/>
          <path id="Path_14" data-name="Path 14" d="M854.094,318.947v-30.3a5.106,5.106,0,0,1,1.076-3.542,3.589,3.589,0,0,1,2.781-1.181,3.713,3.713,0,0,1,2.847,1.168,5.06,5.06,0,0,1,1.089,3.555v30.3a5.11,5.11,0,0,1-1.089,3.568,3.692,3.692,0,0,1-2.847,1.181,3.582,3.582,0,0,1-2.768-1.194A5.117,5.117,0,0,1,854.094,318.947Z" transform="translate(-725.922 -283.919)" fill="#060a75"/>
          <path id="Path_15" data-name="Path 15" d="M905.032,315.562l8.606-12.568L906.4,291.817a22.159,22.159,0,0,1-1.535-2.794,5.581,5.581,0,0,1-.512-2.243,2.612,2.612,0,0,1,.984-1.981,3.476,3.476,0,0,1,2.4-.879,3.317,3.317,0,0,1,2.532.958,24.209,24.209,0,0,1,2.506,3.555l5.772,9.341,6.166-9.341q.761-1.18,1.3-2.02a10.6,10.6,0,0,1,1.037-1.391,3.332,3.332,0,0,1,1.115-.826,3.474,3.474,0,0,1,1.43-.276,3.357,3.357,0,0,1,2.4.879,2.776,2.776,0,0,1,.931,2.086q0,1.758-2.02,4.775l-7.583,11.335,8.16,12.568a21.026,21.026,0,0,1,1.6,2.742,4.964,4.964,0,0,1,.5,2.06,3.261,3.261,0,0,1-.446,1.679,3.218,3.218,0,0,1-1.26,1.207,3.754,3.754,0,0,1-1.836.446,3.544,3.544,0,0,1-1.863-.459,3.956,3.956,0,0,1-1.233-1.141q-.472-.682-1.758-2.65l-6.769-10.652-7.189,10.967q-.84,1.312-1.194,1.837a6.939,6.939,0,0,1-.853,1.023,3.677,3.677,0,0,1-1.181.787,4.087,4.087,0,0,1-1.6.289,3.315,3.315,0,0,1-2.348-.866,3.271,3.271,0,0,1-.932-2.519A9.017,9.017,0,0,1,905.032,315.562Z" transform="translate(-761.773 -283.919)" fill="#060a75"/>
        </g>
      </g>
      <g id="Group_1049" data-name="Group 1049" transform="translate(-332.208 21.645)">
        <g id="gas-fix-icon">
          <path id="Icon_ionic-md-home" data-name="Icon ionic-md-home" d="M19.825,43.979h19.9V24.24h6.415L24.76,4.5,3.375,24.24H9.79v19.74Z" transform="translate(440.833 62.376)" fill="#060a75"/>
          <g id="Group_1047" data-name="Group 1047" transform="translate(456.271 79.22)">
            <g id="Group_33" data-name="Group 33" transform="translate(0 0)">
              <path id="Path_16" data-name="Path 16" d="M220.761,282.514c-4.484-5.117-6.42-6.652-6.986-8.987a1.29,1.29,0,0,1-.263.026,1.242,1.242,0,0,1-.244-.025c-.756,2.3-.487,4.612-.262,6.989a1.1,1.1,0,0,1-.061.5,11.385,11.385,0,0,0,2.191,2.926C219.985,288.726,217,295.5,217,295.5S227.046,289.685,220.761,282.514Z" transform="translate(-203.91 -268.361)" fill="#fff"/>
              <path id="Path_17" data-name="Path 17" d="M150.939,248.633c5.8-7.349,7.529-8.442,7.691-12.5,0,0,4.3,6.861-2.058,13.9-5.1,5.642-2.352,13.235-2.352,13.235S144.291,257.056,150.939,248.633Z" transform="translate(-148.647 -236.136)" fill="#fff"/>
              <path id="Path_18" data-name="Path 18" d="M201.691,384.3c-.839-1.761-2.076-3.029-2.087-3.795-.011.766-1.248,2.034-2.087,3.795a2.994,2.994,0,0,0,.266,3.4h3.641A2.994,2.994,0,0,0,201.691,384.3Z" transform="translate(-190.435 -360.56)" fill="#fff"/>
            </g>
          </g>
        </g>
      </g>
    </g>
  </g>
</svg>
