<svg xmlns="http://www.w3.org/2000/svg" width="24.767" height="5.68" viewBox="0 0 24.767 5.68">
  <g id="gas-fix-icon" transform="translate(0)">
    <g id="gas-fix">
      <g id="Group_1051" data-name="Group 1051" transform="translate(0 0)">
        <g id="gas-fix-text" transform="translate(5.407 0)">
          <g id="Group_32" data-name="Group 32" transform="translate(0 0)">
            <path id="Path_10" data-name="Path 10" d="M380.192,324.159V326.5a2.458,2.458,0,0,1-.086.692,1.108,1.108,0,0,1-.275.479,1.153,1.153,0,0,1-.5.281,2.7,2.7,0,0,1-.761.092,2.215,2.215,0,0,1-.745-.117,1.288,1.288,0,0,1-.506-.3.55.55,0,0,1-.177-.38.313.313,0,0,1,.1-.241.344.344,0,0,1,.242-.093.4.4,0,0,1,.31.157q.065.08.135.161a.786.786,0,0,0,.154.139.6.6,0,0,0,.2.086,1.184,1.184,0,0,0,.272.028,1.1,1.1,0,0,0,.486-.087.5.5,0,0,0,.242-.244.983.983,0,0,0,.081-.336q.012-.179.018-.575a1.327,1.327,0,0,1-.43.4,1.175,1.175,0,0,1-.581.136,1.225,1.225,0,0,1-.708-.207,1.322,1.322,0,0,1-.466-.579,2.134,2.134,0,0,1-.163-.86,2.039,2.039,0,0,1,.1-.656,1.376,1.376,0,0,1,.282-.494,1.209,1.209,0,0,1,.423-.3,1.33,1.33,0,0,1,.526-.1,1.265,1.265,0,0,1,.594.132,1.447,1.447,0,0,1,.467.412v-.109a.47.47,0,0,1,.1-.325.341.341,0,0,1,.266-.115.314.314,0,0,1,.31.152A1,1,0,0,1,380.192,324.159Zm-2.339,1.023a1.117,1.117,0,0,0,.214.742.7.7,0,0,0,.554.251.723.723,0,0,0,.38-.108.792.792,0,0,0,.291-.325,1.138,1.138,0,0,0,.112-.528,1.211,1.211,0,0,0-.217-.769.694.694,0,0,0-.572-.275.672.672,0,0,0-.554.263A1.18,1.18,0,0,0,377.853,325.182Z" transform="translate(-377.043 -322.368)" fill="#0c12f5"/>
            <path id="Path_11" data-name="Path 11" d="M499.473,326.205a2.5,2.5,0,0,1-.566.341,1.583,1.583,0,0,1-.613.114,1.163,1.163,0,0,1-.546-.123.9.9,0,0,1-.362-.333.863.863,0,0,1-.127-.455.815.815,0,0,1,.21-.565,1.05,1.05,0,0,1,.577-.313q.077-.018.381-.08t.522-.114q.217-.052.472-.126a.842.842,0,0,0-.129-.469.575.575,0,0,0-.472-.149.983.983,0,0,0-.463.086.752.752,0,0,0-.266.257,2.721,2.721,0,0,1-.157.226.257.257,0,0,1-.2.055.344.344,0,0,1-.235-.087.284.284,0,0,1-.1-.223.683.683,0,0,1,.151-.414,1.079,1.079,0,0,1,.47-.331,2.118,2.118,0,0,1,.8-.13,2.252,2.252,0,0,1,.837.126.778.778,0,0,1,.43.4,1.738,1.738,0,0,1,.126.721q0,.284,0,.482t0,.441a1.624,1.624,0,0,0,.075.475,1.5,1.5,0,0,1,.075.318.3.3,0,0,1-.117.226.391.391,0,0,1-.265.1.357.357,0,0,1-.245-.117A1.732,1.732,0,0,1,499.473,326.205Zm-.053-1.168a4.068,4.068,0,0,1-.516.137q-.339.072-.469.106a.639.639,0,0,0-.248.133.341.341,0,0,0-.118.276.409.409,0,0,0,.139.312.514.514,0,0,0,.364.129.946.946,0,0,0,.442-.1.7.7,0,0,0,.3-.271,1.236,1.236,0,0,0,.109-.6Z" transform="translate(-493.618 -322.178)" fill="#0c12f5"/>
            <path id="Path_12" data-name="Path 12" d="M619.068,325.794a.936.936,0,0,1-.643.933,2.155,2.155,0,0,1-.773.123,1.886,1.886,0,0,1-.745-.133,1.085,1.085,0,0,1-.458-.333.67.67,0,0,1-.148-.4.31.31,0,0,1,.095-.228.325.325,0,0,1,.24-.095.279.279,0,0,1,.2.062.68.68,0,0,1,.13.174.884.884,0,0,0,.3.322.9.9,0,0,0,.472.106.681.681,0,0,0,.4-.108.3.3,0,0,0,.155-.247.336.336,0,0,0-.161-.31,2,2,0,0,0-.531-.186,4.391,4.391,0,0,1-.679-.217,1.117,1.117,0,0,1-.418-.3.687.687,0,0,1-.157-.458.808.808,0,0,1,.145-.458.994.994,0,0,1,.427-.344,1.636,1.636,0,0,1,.682-.129,2.242,2.242,0,0,1,.563.065,1.406,1.406,0,0,1,.417.174.861.861,0,0,1,.254.242.475.475,0,0,1,.087.26.3.3,0,0,1-.093.228.369.369,0,0,1-.265.089.324.324,0,0,1-.211-.071,1.4,1.4,0,0,1-.2-.213.73.73,0,0,0-.216-.189.68.68,0,0,0-.337-.071.66.66,0,0,0-.364.093.272.272,0,0,0-.145.232.251.251,0,0,0,.106.208.881.881,0,0,0,.287.135q.18.053.5.13a2.656,2.656,0,0,1,.613.219,1.02,1.02,0,0,1,.361.3A.665.665,0,0,1,619.068,325.794Z" transform="translate(-609.057 -322.368)" fill="#0c12f5"/>
            <path id="Path_13" data-name="Path 13" d="M734.143,287.038h-1.73v1.109h1.446a.433.433,0,0,1,.3.09.31.31,0,0,1,.1.241.3.3,0,0,1-.1.239.439.439,0,0,1-.3.089h-1.446v1.428a.575.575,0,0,1-.123.4.444.444,0,0,1-.633,0,.576.576,0,0,1-.123-.4V286.9a.731.731,0,0,1,.056-.309.349.349,0,0,1,.176-.174.74.74,0,0,1,.306-.055h2.07a.45.45,0,0,1,.312.093.315.315,0,0,1,.1.244.318.318,0,0,1-.1.247A.451.451,0,0,1,734.143,287.038Z" transform="translate(-720.802 -286.287)" fill="#060a75"/>
            <path id="Path_14" data-name="Path 14" d="M854.094,287.866v-3.415a.575.575,0,0,1,.121-.4.4.4,0,0,1,.313-.133.418.418,0,0,1,.321.132.57.57,0,0,1,.123.4v3.415a.576.576,0,0,1-.123.4.416.416,0,0,1-.321.133.4.4,0,0,1-.312-.135A.577.577,0,0,1,854.094,287.866Z" transform="translate(-839.651 -283.919)" fill="#060a75"/>
            <path id="Path_15" data-name="Path 15" d="M903.333,287.485l.97-1.416-.816-1.26a2.491,2.491,0,0,1-.173-.315.629.629,0,0,1-.058-.253.294.294,0,0,1,.111-.223.392.392,0,0,1,.271-.1.374.374,0,0,1,.285.108,2.725,2.725,0,0,1,.282.4l.65,1.053.695-1.053.146-.228a1.2,1.2,0,0,1,.117-.157.375.375,0,0,1,.126-.093.391.391,0,0,1,.161-.031.379.379,0,0,1,.271.1.313.313,0,0,1,.1.235,1.087,1.087,0,0,1-.228.538l-.854,1.277.92,1.416a2.371,2.371,0,0,1,.18.309.559.559,0,0,1,.056.232.368.368,0,0,1-.05.189.363.363,0,0,1-.142.136.423.423,0,0,1-.207.05.4.4,0,0,1-.21-.052.445.445,0,0,1-.139-.129q-.053-.077-.2-.3l-.763-1.2-.81,1.236q-.095.148-.135.207a.782.782,0,0,1-.1.115.414.414,0,0,1-.133.089.46.46,0,0,1-.18.033.374.374,0,0,1-.265-.1.368.368,0,0,1-.1-.284A1.016,1.016,0,0,1,903.333,287.485Z" transform="translate(-887.19 -283.919)" fill="#060a75"/>
          </g>
        </g>
        <g id="Group_1049" data-name="Group 1049" transform="translate(0 0.046)">
          <g id="gas-fix-icon-2" data-name="gas-fix-icon">
            <path id="Icon_ionic-md-home" data-name="Icon ionic-md-home" d="M5.229,8.949H7.472V6.724h.723L5.785,4.5,3.375,6.724H4.1V8.949Z" transform="translate(-3.375 -4.5)" fill="#060a75"/>
            <g id="Group_1047" data-name="Group 1047" transform="translate(1.359 1.391)">
              <g id="Group_33" data-name="Group 33" transform="translate(0 0)">
                <path id="Path_16" data-name="Path 16" d="M213.669,274.54c-.505-.577-.723-.75-.787-1.013a.143.143,0,0,1-.03,0,.14.14,0,0,1-.027,0,1.889,1.889,0,0,0-.03.788.124.124,0,0,1-.007.057,1.282,1.282,0,0,0,.247.33,1.226,1.226,0,0,1,.21,1.3S214.377,275.348,213.669,274.54Z" transform="translate(-211.77 -272.945)" fill="#fff"/>
                <path id="Path_17" data-name="Path 17" d="M148.905,237.544c.654-.828.848-.951.867-1.408a1.313,1.313,0,0,1-.232,1.566,1.574,1.574,0,0,0-.265,1.491S148.156,238.493,148.905,237.544Z" transform="translate(-148.647 -236.136)" fill="#fff"/>
                <path id="Path_18" data-name="Path 18" d="M197.647,380.933c-.095-.2-.234-.341-.235-.428,0,.086-.141.229-.235.428a.337.337,0,0,0,.03.383h.41A.337.337,0,0,0,197.647,380.933Z" transform="translate(-196.379 -378.258)" fill="#fff"/>
              </g>
            </g>
          </g>
        </g>
      </g>
    </g>
  </g>
</svg>
