<svg xmlns="http://www.w3.org/2000/svg" width="99.923" height="22.915" viewBox="0 0 99.923 22.915">
  <g id="gas-fix" transform="translate(-112 -88.11)">
    <g id="Group_1051" data-name="Group 1051" transform="translate(112 88.11)">
      <g id="gas-fix-text" transform="translate(21.813 0)">
        <g id="Group_32" data-name="Group 32">
          <path id="Path_10" data-name="Path 10" d="M389.747,325.954v9.46a9.911,9.911,0,0,1-.346,2.791,4.47,4.47,0,0,1-1.109,1.932,4.654,4.654,0,0,1-2,1.133,10.874,10.874,0,0,1-3.072.37,8.933,8.933,0,0,1-3.006-.471,5.2,5.2,0,0,1-2.04-1.217,2.219,2.219,0,0,1-.716-1.533,1.264,1.264,0,0,1,.406-.972,1.388,1.388,0,0,1,.978-.376,1.6,1.6,0,0,1,1.253.632q.262.322.543.65a3.168,3.168,0,0,0,.62.561,2.431,2.431,0,0,0,.817.346,4.782,4.782,0,0,0,1.1.113,4.445,4.445,0,0,0,1.962-.352,2.011,2.011,0,0,0,.978-.984,3.967,3.967,0,0,0,.328-1.354q.047-.722.072-2.32a5.35,5.35,0,0,1-1.736,1.6,4.741,4.741,0,0,1-2.344.549,4.941,4.941,0,0,1-2.857-.835,5.331,5.331,0,0,1-1.879-2.338,8.607,8.607,0,0,1-.656-3.471,8.228,8.228,0,0,1,.4-2.648,5.554,5.554,0,0,1,1.139-1.992A4.875,4.875,0,0,1,380.288,324a5.363,5.363,0,0,1,2.123-.412,5.1,5.1,0,0,1,2.4.531,5.836,5.836,0,0,1,1.885,1.664v-.441a1.9,1.9,0,0,1,.418-1.312,1.376,1.376,0,0,1,1.074-.465,1.266,1.266,0,0,1,1.253.614A4.032,4.032,0,0,1,389.747,325.954Zm-9.436,4.127a4.5,4.5,0,0,0,.865,2.994,2.8,2.8,0,0,0,2.237,1.014,2.918,2.918,0,0,0,1.533-.435,3.2,3.2,0,0,0,1.175-1.312,4.592,4.592,0,0,0,.453-2.129,4.887,4.887,0,0,0-.877-3.1A2.8,2.8,0,0,0,383.389,326a2.71,2.71,0,0,0-2.237,1.062A4.758,4.758,0,0,0,380.311,330.081Z" transform="translate(-377.043 -318.725)" fill="#fff"/>
          <path id="Path_11" data-name="Path 11" d="M506.193,334.8a10.08,10.08,0,0,1-2.284,1.378,6.388,6.388,0,0,1-2.475.459,4.692,4.692,0,0,1-2.2-.5,3.62,3.62,0,0,1-1.461-1.342,3.481,3.481,0,0,1-.513-1.837,3.288,3.288,0,0,1,.847-2.278,4.236,4.236,0,0,1,2.326-1.265q.31-.071,1.539-.322t2.105-.459q.877-.208,1.9-.507a3.4,3.4,0,0,0-.519-1.891,2.32,2.32,0,0,0-1.9-.6,3.967,3.967,0,0,0-1.867.346,3.032,3.032,0,0,0-1.074,1.038,11.022,11.022,0,0,1-.632.913,1.037,1.037,0,0,1-.793.221,1.387,1.387,0,0,1-.948-.352,1.146,1.146,0,0,1-.4-.9,2.754,2.754,0,0,1,.608-1.67,4.352,4.352,0,0,1,1.9-1.336,8.544,8.544,0,0,1,3.209-.525,9.082,9.082,0,0,1,3.376.507,3.139,3.139,0,0,1,1.736,1.6,7.016,7.016,0,0,1,.507,2.911q0,1.145-.006,1.944t-.018,1.777a6.545,6.545,0,0,0,.3,1.914,6.051,6.051,0,0,1,.3,1.282,1.2,1.2,0,0,1-.471.913,1.579,1.579,0,0,1-1.068.412,1.44,1.44,0,0,1-.99-.471A6.989,6.989,0,0,1,506.193,334.8Zm-.215-4.712a16.375,16.375,0,0,1-2.082.555q-1.366.293-1.891.429a2.573,2.573,0,0,0-1,.537,1.375,1.375,0,0,0-.477,1.115,1.652,1.652,0,0,0,.561,1.259,2.075,2.075,0,0,0,1.467.519,3.816,3.816,0,0,0,1.783-.424,2.825,2.825,0,0,0,1.2-1.092,4.986,4.986,0,0,0,.441-2.433Z" transform="translate(-482.574 -318.554)" fill="#fff"/>
          <path id="Path_12" data-name="Path 12" d="M627.466,332.55a3.777,3.777,0,0,1-2.594,3.764,8.691,8.691,0,0,1-3.119.495,7.61,7.61,0,0,1-3.006-.537,4.376,4.376,0,0,1-1.849-1.342,2.7,2.7,0,0,1-.6-1.616,1.252,1.252,0,0,1,.382-.919,1.309,1.309,0,0,1,.966-.382,1.128,1.128,0,0,1,.787.251,2.744,2.744,0,0,1,.525.7,3.567,3.567,0,0,0,1.2,1.3,3.615,3.615,0,0,0,1.9.429,2.748,2.748,0,0,0,1.6-.435,1.225,1.225,0,0,0,.626-1,1.356,1.356,0,0,0-.65-1.253,8.046,8.046,0,0,0-2.141-.751,17.743,17.743,0,0,1-2.738-.877,4.507,4.507,0,0,1-1.688-1.211,2.775,2.775,0,0,1-.632-1.849,3.262,3.262,0,0,1,.584-1.849,4.008,4.008,0,0,1,1.724-1.39,6.6,6.6,0,0,1,2.75-.519,9.04,9.04,0,0,1,2.272.262,5.672,5.672,0,0,1,1.682.7,3.469,3.469,0,0,1,1.026.978,1.915,1.915,0,0,1,.352,1.05,1.212,1.212,0,0,1-.376.918,1.487,1.487,0,0,1-1.067.358,1.308,1.308,0,0,1-.853-.286,5.618,5.618,0,0,1-.805-.859,2.946,2.946,0,0,0-.871-.763,2.744,2.744,0,0,0-1.36-.286,2.662,2.662,0,0,0-1.467.376,1.1,1.1,0,0,0-.585.936,1.014,1.014,0,0,0,.43.841,3.558,3.558,0,0,0,1.157.543q.728.215,2,.525a10.715,10.715,0,0,1,2.475.883,4.118,4.118,0,0,1,1.455,1.211A2.684,2.684,0,0,1,627.466,332.55Z" transform="translate(-587.076 -318.725)" fill="#fff"/>
          <path id="Path_13" data-name="Path 13" d="M742.056,289.093h-6.978v4.473h5.833a1.75,1.75,0,0,1,1.211.364,1.251,1.251,0,0,1,.4.972,1.224,1.224,0,0,1-.406.966,1.773,1.773,0,0,1-1.2.358h-5.833v5.762a2.319,2.319,0,0,1-.5,1.628,1.793,1.793,0,0,1-2.553-.006,2.323,2.323,0,0,1-.5-1.622V288.532a2.946,2.946,0,0,1,.227-1.247,1.407,1.407,0,0,1,.71-.7,2.985,2.985,0,0,1,1.235-.221h8.35a1.817,1.817,0,0,1,1.259.376,1.27,1.27,0,0,1,.412.984,1.284,1.284,0,0,1-.412,1A1.817,1.817,0,0,1,742.056,289.093Z" transform="translate(-688.234 -286.063)" fill="#111"/>
          <path id="Path_14" data-name="Path 14" d="M854.094,299.844V286.066a2.322,2.322,0,0,1,.489-1.61,1.632,1.632,0,0,1,1.264-.537,1.688,1.688,0,0,1,1.294.531,2.3,2.3,0,0,1,.5,1.616v13.778a2.323,2.323,0,0,1-.5,1.622,1.678,1.678,0,0,1-1.294.537,1.629,1.629,0,0,1-1.259-.543A2.327,2.327,0,0,1,854.094,299.844Z" transform="translate(-795.822 -283.919)" fill="#111"/>
          <path id="Path_15" data-name="Path 15" d="M903.988,298.305l3.913-5.714-3.292-5.082a10.047,10.047,0,0,1-.7-1.27,2.535,2.535,0,0,1-.233-1.02,1.187,1.187,0,0,1,.447-.9,1.58,1.58,0,0,1,1.092-.4,1.508,1.508,0,0,1,1.151.435,11.015,11.015,0,0,1,1.139,1.616l2.624,4.247,2.8-4.247.591-.918a4.811,4.811,0,0,1,.471-.632,1.514,1.514,0,0,1,.507-.376,1.579,1.579,0,0,1,.65-.125,1.527,1.527,0,0,1,1.092.4,1.262,1.262,0,0,1,.423.948,4.386,4.386,0,0,1-.919,2.171l-3.447,5.153,3.71,5.714a9.548,9.548,0,0,1,.728,1.247,2.258,2.258,0,0,1,.227.936,1.481,1.481,0,0,1-.2.763,1.463,1.463,0,0,1-.573.549,1.707,1.707,0,0,1-.835.2,1.611,1.611,0,0,1-.847-.209,1.8,1.8,0,0,1-.561-.519q-.215-.31-.8-1.2l-3.078-4.843-3.269,4.986q-.382.6-.543.835a3.15,3.15,0,0,1-.388.465,1.671,1.671,0,0,1-.537.358,1.858,1.858,0,0,1-.728.131,1.507,1.507,0,0,1-1.068-.394,1.487,1.487,0,0,1-.423-1.145A4.1,4.1,0,0,1,903.988,298.305Z" transform="translate(-838.857 -283.919)" fill="#111"/>
        </g>
      </g>
      <g id="Group_1049" data-name="Group 1049" transform="translate(0 0.187)">
        <g id="gas-fix-icon" transform="translate(0 0)">
          <path id="Icon_ionic-md-home" data-name="Icon ionic-md-home" d="M10.854,22.449H19.9V13.474h2.917L13.1,4.5,3.375,13.474H6.292v8.974Z" transform="translate(-3.375 -4.5)" fill="#111"/>
          <g id="Group_1047" data-name="Group 1047" transform="translate(5.484 5.612)">
            <g id="Group_33" data-name="Group 33" transform="translate(0 0)">
              <path id="Path_16" data-name="Path 16" d="M216.4,277.613c-2.039-2.326-2.919-3.024-3.176-4.086a.588.588,0,0,1-.12.012.56.56,0,0,1-.111-.011,7.619,7.619,0,0,0-.119,3.177.5.5,0,0,1-.028.228,5.176,5.176,0,0,0,1,1.33c2.205,2.174.848,5.251.848,5.251S219.259,280.873,216.4,277.613Z" transform="translate(-208.741 -271.179)" fill="#fff"/>
              <path id="Path_17" data-name="Path 17" d="M149.689,241.817c2.637-3.341,3.423-3.838,3.5-5.681a5.3,5.3,0,0,1-.935,6.32c-2.319,2.565-1.069,6.017-1.069,6.017S146.666,245.647,149.689,241.817Z" transform="translate(-148.647 -236.136)" fill="#fff"/>
              <path id="Path_18" data-name="Path 18" d="M199.205,382.23c-.381-.8-.944-1.377-.949-1.725,0,.348-.567.925-.949,1.725a1.361,1.361,0,0,0,.121,1.544h1.655A1.361,1.361,0,0,0,199.205,382.23Z" transform="translate(-194.088 -371.437)" fill="#fff"/>
            </g>
          </g>
        </g>
      </g>
    </g>
  </g>
</svg>
