<svg xmlns="http://www.w3.org/2000/svg" width="64" height="64" viewBox="0 0 64 64">
  <g id="trusted-by" transform="translate(-208 -244)">
    <g id="Ellipse_245" data-name="Ellipse 245" transform="translate(208 244)" fill="#fff" stroke="#0bbee3" stroke-width="3">
      <circle cx="32" cy="32" r="32" stroke="none"/>
      <circle cx="32" cy="32" r="30.5" fill="none"/>
    </g>
    <path id="Icon_awesome-thumbs-up" data-name="Icon awesome-thumbs-up" d="M7.784,16.765H1.8a1.8,1.8,0,0,0-1.8,1.8V36.523a1.8,1.8,0,0,0,1.8,1.8H7.784a1.8,1.8,0,0,0,1.8-1.8V18.561A1.8,1.8,0,0,0,7.784,16.765ZM4.79,35.325a1.8,1.8,0,1,1,1.8-1.8A1.8,1.8,0,0,1,4.79,35.325ZM28.739,6.1c0,3.174-1.944,4.955-2.491,7.076h7.613a4.472,4.472,0,0,1,4.457,4.348A5.419,5.419,0,0,1,36.864,21.2l-.008.008a6.252,6.252,0,0,1-.7,5.948,5.918,5.918,0,0,1-1.226,5.595,3.973,3.973,0,0,1-.46,3.34c-1.528,2.195-5.313,2.226-8.515,2.226h-.213A21.485,21.485,0,0,1,16.8,35.945a11.779,11.779,0,0,0-3.941-1.211.9.9,0,0,1-.882-.9v-16a.9.9,0,0,1,.266-.638c2.965-2.93,4.24-6.031,6.67-8.465a9.064,9.064,0,0,0,1.9-4.408C21.144,2.941,21.84,0,23.351,0,25.147,0,28.739.6,28.739,6.1Z" transform="translate(220.992 255)" fill="#0c12f5"/>
  </g>
</svg>
