<svg xmlns="http://www.w3.org/2000/svg" width="64" height="64" viewBox="0 0 64 64">
  <g id="what-they-say" transform="translate(-295 -227)">
    <g id="Path_271" data-name="Path 271" transform="translate(295 227)" fill="#fff">
      <path d="M 62.5 62.5 L 50.66666030883789 62.5 L 1.5 62.5 L 1.5 1.5 L 62.5 1.5 L 62.5 62.5 Z" stroke="none"/>
      <path d="M 3 3 L 3 61 L 50.66665649414062 61 L 61 61 L 61 3 L 3 3 M 0 0 L 64 0 L 64 64 L 50.66665649414062 64 L 0 64 L 0 0 Z" stroke="none" fill="#0bbee3"/>
    </g>
    <path id="Icon_material-chat" data-name="Icon material-chat" d="M37.891,3H6.877A3.9,3.9,0,0,0,3.019,6.937L3,42.369,10.754,34.5H37.891a3.919,3.919,0,0,0,3.877-3.937V6.937A3.919,3.919,0,0,0,37.891,3ZM10.754,16.779H34.014v3.937H10.754Zm15.507,9.842H10.754V22.685H26.261Zm7.754-11.811H10.754V10.874H34.014Z" transform="translate(304.592 236)" fill="#0c12f5"/>
  </g>
</svg>
